<svg width="173" height="43" viewBox="0 0 173 43" fill="none" xmlns="http://www.w3.org/2000/svg">
<g clip-path="url(#clip0_5_194)">
<path d="M75.2607 21.061C75.2607 25.4131 71.8558 28.0473 66.5365 28.0473H59.0393V14.0746H66.5365C71.8558 14.0746 75.2607 16.7088 75.2607 21.061ZM71.9778 21.061C71.9778 18.185 69.6779 16.7915 66.2923 16.7915H62.2643V25.3368H66.2923C69.6779 25.3368 71.9778 23.937 71.9778 21.0673V21.061Z" fill="black"/>
<path d="M92.9275 25.3686V28.041H78.3958V14.0682H92.7219V16.7406H81.6015V19.6166H90.891V22.289H81.6015V25.3622H92.9275V25.3686Z" fill="black"/>
<path d="M109.335 25.2922V28.0473H96.1332V14.0746H99.3582V25.2922H109.335Z" fill="black"/>
<path d="M133.388 21.6591V28.0473H130.285V21.8181C130.285 20.1002 129.418 19.1012 127.606 19.1012C126.013 19.1012 124.824 19.9411 124.06 21.4173V25.8649L124.079 28.041H120.957V21.8118C120.957 20.0938 120.089 19.0948 118.278 19.0948C116.685 19.0948 115.535 19.8902 114.751 21.3473V28.0346H111.629V17.0396H114.751V18.993C115.618 17.5168 117.269 16.6388 119.306 16.6388C121.702 16.6388 123.154 17.8159 123.738 19.572C124.503 17.835 126.295 16.6388 128.634 16.6388C131.897 16.6388 133.388 18.8149 133.388 21.6463V21.6591Z" fill="black"/>
<path d="M136.426 14.1764C136.426 13.241 137.21 12.5984 138.322 12.5984C139.433 12.5984 140.178 13.2347 140.178 14.1764C140.178 15.1181 139.414 15.7353 138.322 15.7353C137.229 15.7353 136.426 15.0735 136.426 14.1764ZM139.908 28.0473H136.786V17.0524H139.908V28.0473Z" fill="black"/>
<path d="M143.358 28.0473V17.0524H146.48V18.9867C147.386 17.5296 149.179 16.6515 151.318 16.6515C154.646 16.6515 156.355 18.7449 156.355 21.6781V28.0473H153.232V21.8817C153.232 20.0874 152.262 19.1076 150.412 19.1076C148.761 19.1076 147.386 19.8647 146.48 21.4427V28.0473H143.358Z" fill="black"/>
<path d="M169.878 18.8467V13.2792H173V28.0473H169.878V26.2721C168.972 27.4874 167.321 28.4673 165.04 28.4673C161.513 28.4673 159.053 26.1512 159.053 22.5626C159.053 18.9739 161.513 16.6579 165.04 16.6579C167.315 16.6579 168.972 17.6377 169.878 18.853V18.8467ZM169.859 24.096V21.0228C168.888 19.7629 167.462 19.2284 165.83 19.2284C163.415 19.2284 162.04 20.4056 162.04 22.5626C162.04 24.7196 163.409 25.8967 165.83 25.8967C167.462 25.8967 168.895 25.3559 169.859 24.1024V24.096Z" fill="black"/>
<path d="M36.7278 16.4734C37.8328 14.3673 38.8028 12.1403 39.1497 9.85602C39.3168 8.71707 39.3039 7.5654 38.9763 6.51553C37.3124 1.15167 28.5882 -0.36905 23.8342 0.0699852C16.4784 0.757171 10.3946 5.06481 7.93406 12.1339C7.73491 12.6811 7.59358 13.2474 7.47152 13.8073C7.45224 13.9091 7.43297 14.0109 7.4137 14.1191C10.6258 13.8264 25.0869 12.9611 32.507 22.4353C32.5456 22.3908 32.5841 22.3463 32.6227 22.3017C34.1452 20.4374 35.6164 18.5795 36.7278 16.4734Z" fill="#1982D8"/>
<path d="M43.711 9.91328C42.5932 7.9917 41.2055 6.31828 39.6251 4.90573C39.85 5.30659 40.0363 5.72654 40.1648 6.15921C40.5567 7.4445 40.5438 8.77433 40.3575 10.0342C40.1648 11.294 39.7922 12.5029 39.3425 13.661C38.8864 14.819 38.366 15.9389 37.7621 17.0269C36.5672 19.203 35.0832 21.2073 33.3807 22.9953C31.7104 24.7514 29.6996 26.4503 27.6502 27.7356C21.2067 32.5522 14.2363 34.811 12.6624 35.2819C13.5232 36.2363 14.4804 37.108 15.5404 37.8461C16.5105 38.5269 17.5577 39.0996 18.6562 39.5386C19.7612 39.9713 20.9176 40.2703 22.0932 40.423C23.2625 40.5694 24.4831 40.5948 25.6908 40.5821C26.8986 40.563 28.1064 40.493 29.3077 40.334C31.5177 40.0476 33.7212 39.5132 35.7256 38.4697C35.8348 38.4124 35.9376 38.3551 36.0468 38.2915C46.0751 32.5586 49.5121 19.8584 43.7174 9.926L43.711 9.91328Z" fill="#0F67B7"/>
<path d="M14.9751 38.6224C13.7224 37.7697 12.5981 36.739 11.6088 35.6127C10.9535 34.8683 10.3496 34.0729 9.80353 33.2521C8.44158 31.1651 7.42654 28.8681 6.77126 26.4757C6.45004 25.2795 6.22519 24.0451 6.07743 22.8235C5.92967 21.5954 5.84616 20.3674 5.83331 19.133C5.82046 17.8986 5.87828 16.6642 6.00677 15.4298C6.00677 15.3789 6.01961 15.3217 6.02604 15.2708C6.09028 14.7108 6.15452 14.1573 6.26374 13.5783C6.3858 12.9547 6.54641 12.3375 6.75198 11.7394C6.91902 11.2431 7.11175 10.7595 7.32375 10.2823C6.21234 12.223 4.82469 14.5136 3.88032 15.6144C2.73037 16.9569 1.10503 19.3812 0.359806 22.1744C0.359806 22.1935 0.346958 22.219 0.340533 22.2381C0.122107 23.0843 0.00646973 23.9751 0.00646973 24.8914C0.00646973 25.9222 0.154229 26.9148 0.430474 27.8564C0.790234 29.1036 1.38127 30.2807 2.15861 31.3178C3.10941 32.5777 4.38142 33.7166 5.64058 34.671C7.74775 36.2617 10.4909 36.8789 12.9 37.8843" fill="#30A4E5"/>
<path d="M65.2131 41.1993H63.8576L63.318 39.8059H60.8446L60.3371 41.1993H59.0137L61.4228 35.0719H62.7462L65.2195 41.1993H65.2131ZM62.9132 38.7751L62.0588 36.5036L61.2236 38.7751H62.9132Z" fill="black"/>
<path d="M67.9499 35.0719H70.2305C70.7445 35.0719 71.1364 35.1101 71.4062 35.1864C71.7659 35.2946 72.0807 35.4791 72.3377 35.7527C72.5947 36.02 72.7938 36.3508 72.9287 36.7453C73.0636 37.1335 73.1343 37.617 73.1343 38.1961C73.1343 38.6987 73.0701 39.1314 72.9416 39.5004C72.7874 39.9458 72.569 40.3085 72.2799 40.5821C72.0615 40.7921 71.7724 40.9512 71.3998 41.0721C71.1235 41.1611 70.7573 41.1993 70.2948 41.1993H67.9435V35.0719H67.9499ZM69.1962 36.1091V40.1685H70.1277C70.4747 40.1685 70.7252 40.1495 70.8858 40.1113C71.085 40.0604 71.2584 39.9777 71.3869 39.8568C71.5218 39.7359 71.631 39.5386 71.7145 39.265C71.7981 38.9914 71.843 38.616 71.843 38.1452C71.843 37.6743 71.7981 37.3116 71.7145 37.0571C71.631 36.8026 71.5154 36.6054 71.3612 36.4654C71.207 36.3254 71.0143 36.23 70.783 36.179C70.6096 36.1409 70.2691 36.1218 69.7616 36.1218H69.2026L69.1962 36.1091Z" fill="black"/>
<path d="M76.7768 39.7868L77.9589 39.984C77.8047 40.4103 77.567 40.7412 77.2394 40.9639C76.9118 41.1866 76.5006 41.3011 76.0124 41.3011C75.235 41.3011 74.6568 41.0466 74.2842 40.544C73.9887 40.1431 73.8409 39.6277 73.8409 39.0169C73.8409 38.2788 74.0337 37.7061 74.4256 37.2862C74.811 36.8726 75.3057 36.6626 75.8967 36.6626C76.5648 36.6626 77.0916 36.879 77.4771 37.318C77.8626 37.757 78.0489 38.4188 78.0296 39.3223H75.0616C75.068 39.6722 75.1643 39.9395 75.3507 40.1367C75.537 40.334 75.7618 40.4294 76.0316 40.4294C76.2179 40.4294 76.3721 40.3785 76.5006 40.2767C76.6291 40.1749 76.7255 40.0158 76.7897 39.7931L76.7768 39.7868ZM76.8475 38.6033C76.8411 38.2661 76.7511 38.0052 76.5841 37.827C76.4171 37.6489 76.2115 37.5598 75.9674 37.5598C75.7104 37.5598 75.492 37.6552 75.325 37.8398C75.1579 38.0243 75.0744 38.2788 75.0744 38.5969H76.8475V38.6033Z" fill="black"/>
<path d="M78.9868 41.1993V35.0719H80.1753V41.1993H78.9868Z" fill="black"/>
<path d="M83.4453 36.7644V37.6998H82.6359V39.4877C82.6359 39.8504 82.6423 40.0604 82.6616 40.1176C82.6809 40.1749 82.713 40.2258 82.7644 40.264C82.8222 40.3022 82.8864 40.3212 82.9635 40.3212C83.0727 40.3212 83.2333 40.2831 83.4389 40.2067L83.5417 41.1166C83.2655 41.2311 82.9571 41.2948 82.6038 41.2948C82.3918 41.2948 82.199 41.2566 82.0256 41.1866C81.8521 41.1166 81.7301 41.0212 81.6465 40.913C81.5694 40.7985 81.5116 40.6458 81.4795 40.4549C81.4538 40.3213 81.441 40.0413 81.441 39.6277V37.6934H80.8949V36.7581H81.441V35.8736L82.6295 35.1864V36.7517H83.4389L83.4453 36.7644Z" fill="black"/>
<path d="M85.1542 38.1134L84.0813 37.9225C84.2034 37.4962 84.409 37.178 84.7045 36.968C85 36.7581 85.4369 36.6563 86.0215 36.6563C86.5483 36.6563 86.9466 36.7199 87.2036 36.8408C87.4605 36.9617 87.6468 37.1208 87.7496 37.3116C87.8524 37.5025 87.9102 37.8525 87.9102 38.3615L87.8974 39.7295C87.8974 40.1176 87.9166 40.404 87.9552 40.5949C87.9937 40.7857 88.0644 40.9766 88.1672 41.193H86.998C86.9658 41.1166 86.9273 41.0021 86.8823 40.8494C86.8631 40.7794 86.8502 40.7348 86.8438 40.7094C86.6382 40.9066 86.4262 41.053 86.1949 41.1484C85.9637 41.2439 85.7195 41.2948 85.4561 41.2948C84.9936 41.2948 84.6338 41.1739 84.364 40.9257C84.0942 40.6776 83.9657 40.3658 83.9657 39.984C83.9657 39.7359 84.0235 39.5132 84.1456 39.3159C84.2676 39.1187 84.4347 38.9723 84.6531 38.8642C84.8715 38.7624 85.1863 38.6669 85.5975 38.5906C86.15 38.4888 86.5354 38.3933 86.7474 38.3042V38.1897C86.7474 37.967 86.6896 37.8016 86.5804 37.7061C86.4712 37.6107 86.2592 37.5598 85.9444 37.5598C85.7324 37.5598 85.5718 37.598 85.4497 37.6807C85.3341 37.7634 85.2377 37.9097 85.1606 38.1134H85.1542ZM86.741 39.0678C86.5868 39.1187 86.3491 39.1759 86.0215 39.2459C85.6938 39.3159 85.4754 39.3859 85.379 39.4495C85.2249 39.5577 85.1478 39.6977 85.1478 39.8631C85.1478 40.0286 85.212 40.1685 85.3341 40.2894C85.4561 40.4103 85.6168 40.4676 85.8095 40.4676C86.0215 40.4676 86.2271 40.3976 86.4198 40.2576C86.5611 40.1495 86.6575 40.0222 86.7025 39.8695C86.7346 39.7677 86.7474 39.5768 86.7474 39.2968V39.0614L86.741 39.0678Z" fill="black"/>
<path d="M96.7372 41.1993H95.3816L94.842 39.8059H92.3686L91.8611 41.1993H90.5377L92.9468 35.0719H94.2702L96.7436 41.1993H96.7372ZM94.4373 38.7751L93.5828 36.5036L92.7477 38.7751H94.4373Z" fill="black"/>
<path d="M96.9749 39.9331L98.1634 39.755C98.2147 39.984 98.3175 40.1558 98.4717 40.2767C98.6259 40.3976 98.8443 40.4549 99.1206 40.4549C99.4289 40.4549 99.6602 40.3976 99.8144 40.2894C99.9172 40.2131 99.9686 40.1049 99.9686 39.9777C99.9686 39.8886 99.9429 39.8122 99.8851 39.755C99.8272 39.6977 99.6923 39.6468 99.4868 39.6023C98.5295 39.3923 97.9257 39.2014 97.6687 39.0296C97.3153 38.7878 97.1355 38.4569 97.1355 38.0306C97.1355 37.6489 97.2896 37.3244 97.598 37.0635C97.9064 36.8026 98.3818 36.669 99.0242 36.669C99.6666 36.669 100.091 36.7644 100.393 36.968C100.695 37.1717 100.894 37.458 101.009 37.8461L99.8915 38.0497C99.8465 37.8779 99.7566 37.7443 99.6217 37.6552C99.4868 37.5661 99.3004 37.5152 99.0499 37.5152C98.7351 37.5152 98.5167 37.5598 98.3818 37.6425C98.2918 37.7061 98.2469 37.7825 98.2469 37.8779C98.2469 37.9606 98.2854 38.0306 98.3625 38.0879C98.4717 38.1643 98.8379 38.2788 99.4675 38.4188C100.097 38.5588 100.54 38.7369 100.791 38.9405C101.041 39.1505 101.164 39.4432 101.164 39.8122C101.164 40.2194 100.99 40.5694 100.65 40.8621C100.309 41.1548 99.8015 41.3011 99.127 41.3011C98.5167 41.3011 98.0349 41.1802 97.6751 40.9321C97.3218 40.6839 97.0841 40.3531 96.9749 39.9331Z" fill="black"/>
<path d="M101.78 39.9331L102.969 39.755C103.02 39.984 103.123 40.1558 103.277 40.2767C103.431 40.3976 103.65 40.4549 103.926 40.4549C104.234 40.4549 104.466 40.3976 104.62 40.2894C104.723 40.2131 104.774 40.1049 104.774 39.9777C104.774 39.8886 104.748 39.8122 104.69 39.755C104.633 39.6977 104.498 39.6468 104.292 39.6023C103.335 39.3923 102.731 39.2014 102.474 39.0296C102.121 38.7878 101.941 38.4569 101.941 38.0306C101.941 37.6489 102.095 37.3244 102.403 37.0635C102.712 36.8026 103.187 36.669 103.83 36.669C104.472 36.669 104.896 36.7644 105.198 36.968C105.5 37.1717 105.699 37.458 105.815 37.8461L104.697 38.0497C104.652 37.8779 104.562 37.7443 104.427 37.6552C104.292 37.5661 104.106 37.5152 103.855 37.5152C103.541 37.5152 103.322 37.5598 103.187 37.6425C103.097 37.7061 103.052 37.7825 103.052 37.8779C103.052 37.9606 103.091 38.0306 103.168 38.0879C103.277 38.1643 103.643 38.2788 104.273 38.4188C104.902 38.5588 105.346 38.7369 105.596 38.9405C105.847 39.1505 105.969 39.4432 105.969 39.8122C105.969 40.2194 105.795 40.5694 105.455 40.8621C105.114 41.1548 104.607 41.3011 103.932 41.3011C103.322 41.3011 102.84 41.1802 102.481 40.9321C102.127 40.6839 101.889 40.3531 101.78 39.9331Z" fill="black"/>
<path d="M106.727 38.9151C106.727 38.5269 106.823 38.1452 107.016 37.7825C107.209 37.4198 107.485 37.1398 107.838 36.949C108.192 36.7581 108.59 36.6626 109.027 36.6626C109.701 36.6626 110.26 36.879 110.691 37.318C111.121 37.757 111.34 38.3042 111.34 38.9723C111.34 39.6404 111.121 40.2004 110.684 40.6394C110.248 41.0784 109.695 41.3011 109.033 41.3011C108.622 41.3011 108.23 41.2121 107.858 41.0275C107.485 40.843 107.202 40.5758 107.01 40.2194C106.817 39.8631 106.721 39.4305 106.721 38.9214L106.727 38.9151ZM107.941 38.9787C107.941 39.4177 108.044 39.755 108.256 39.9904C108.468 40.2258 108.725 40.3403 109.033 40.3403C109.342 40.3403 109.599 40.2258 109.811 39.9904C110.023 39.755 110.125 39.4177 110.125 38.9723C110.125 38.5269 110.023 38.2024 109.811 37.967C109.599 37.7316 109.342 37.6171 109.033 37.6171C108.725 37.6171 108.462 37.7316 108.256 37.967C108.044 38.2024 107.941 38.5397 107.941 38.9787Z" fill="black"/>
<path d="M116.19 38.0752L115.021 38.2851C114.982 38.0561 114.892 37.8779 114.751 37.7634C114.61 37.6489 114.43 37.5852 114.211 37.5852C113.916 37.5852 113.678 37.687 113.505 37.8907C113.331 38.0943 113.241 38.4315 113.241 38.9023C113.241 39.4305 113.331 39.7995 113.511 40.0158C113.691 40.2322 113.929 40.3403 114.231 40.3403C114.455 40.3403 114.642 40.2767 114.783 40.1495C114.924 40.0222 115.027 39.8059 115.085 39.4941L116.248 39.6913C116.126 40.2194 115.894 40.6203 115.554 40.8875C115.214 41.1548 114.751 41.2948 114.173 41.2948C113.517 41.2948 112.997 41.0912 112.605 40.6776C112.213 40.2704 112.021 39.7041 112.021 38.9787C112.021 38.2533 112.213 37.6743 112.605 37.2671C112.997 36.8599 113.524 36.6563 114.192 36.6563C114.738 36.6563 115.169 36.7708 115.496 37.0062C115.817 37.2416 116.049 37.5916 116.19 38.0688V38.0752Z" fill="black"/>
<path d="M117.083 36.16V35.0719H118.271V36.16H117.083ZM117.083 41.1993V36.7644H118.271V41.1993H117.083Z" fill="black"/>
<path d="M120.372 38.1134L119.299 37.9225C119.421 37.4962 119.627 37.178 119.923 36.968C120.218 36.7581 120.655 36.6563 121.239 36.6563C121.766 36.6563 122.165 36.7199 122.422 36.8408C122.679 36.9617 122.865 37.1208 122.968 37.3116C123.07 37.5025 123.128 37.8525 123.128 38.3615L123.115 39.7295C123.115 40.1176 123.135 40.404 123.173 40.5949C123.212 40.7857 123.282 40.9766 123.385 41.193H122.216C122.184 41.1166 122.145 41.0021 122.1 40.8494C122.081 40.7794 122.068 40.7348 122.062 40.7094C121.856 40.9066 121.644 41.053 121.413 41.1484C121.182 41.2439 120.938 41.2948 120.674 41.2948C120.212 41.2948 119.852 41.1739 119.582 40.9257C119.312 40.6776 119.184 40.3658 119.184 39.984C119.184 39.7359 119.242 39.5132 119.364 39.3159C119.486 39.1187 119.653 38.9723 119.871 38.8642C120.09 38.7624 120.404 38.6669 120.815 38.5906C121.368 38.4888 121.753 38.3933 121.965 38.3042V38.1897C121.965 37.967 121.908 37.8016 121.798 37.7061C121.689 37.6107 121.477 37.5598 121.162 37.5598C120.95 37.5598 120.79 37.598 120.668 37.6807C120.552 37.7634 120.456 37.9097 120.379 38.1134H120.372ZM121.959 39.0678C121.805 39.1187 121.567 39.1759 121.239 39.2459C120.912 39.3159 120.693 39.3859 120.597 39.4495C120.443 39.5577 120.366 39.6977 120.366 39.8631C120.366 40.0286 120.43 40.1685 120.552 40.2894C120.674 40.4103 120.835 40.4676 121.027 40.4676C121.239 40.4676 121.445 40.3976 121.638 40.2576C121.779 40.1495 121.875 40.0222 121.92 39.8695C121.953 39.7677 121.965 39.5768 121.965 39.2968V39.0614L121.959 39.0678Z" fill="black"/>
<path d="M126.347 36.7644V37.6998H125.537V39.4877C125.537 39.8504 125.544 40.0604 125.563 40.1176C125.582 40.1749 125.614 40.2258 125.666 40.264C125.724 40.3022 125.788 40.3212 125.865 40.3212C125.974 40.3212 126.135 40.2831 126.34 40.2067L126.443 41.1166C126.167 41.2311 125.859 41.2948 125.505 41.2948C125.293 41.2948 125.101 41.2566 124.927 41.1866C124.754 41.1166 124.632 41.0212 124.548 40.913C124.471 40.7985 124.413 40.6458 124.381 40.4549C124.355 40.3213 124.342 40.0413 124.342 39.6277V37.6934H123.796V36.7581H124.342V35.8736L125.531 35.1864V36.7517H126.34L126.347 36.7644Z" fill="black"/>
<path d="M129.765 39.7868L130.947 39.984C130.792 40.4103 130.555 40.7412 130.227 40.9639C129.899 41.1866 129.488 41.3011 129 41.3011C128.223 41.3011 127.645 41.0466 127.272 40.544C126.976 40.1431 126.829 39.6277 126.829 39.0169C126.829 38.2788 127.021 37.7061 127.413 37.2862C127.799 36.8726 128.293 36.6626 128.884 36.6626C129.553 36.6626 130.079 36.879 130.465 37.318C130.85 37.757 131.037 38.4188 131.017 39.3223H128.049C128.056 39.6722 128.152 39.9395 128.338 40.1367C128.525 40.334 128.749 40.4294 129.019 40.4294C129.206 40.4294 129.36 40.3785 129.488 40.2767C129.617 40.1749 129.713 40.0158 129.777 39.7931L129.765 39.7868ZM129.829 38.6033C129.822 38.2661 129.732 38.0052 129.565 37.827C129.398 37.6489 129.193 37.5598 128.949 37.5598C128.692 37.5598 128.473 37.6552 128.306 37.8398C128.139 38.0243 128.056 38.2788 128.056 38.5969H129.829V38.6033Z" fill="black"/>
<path d="M138.341 38.9469L139.549 39.3286C139.362 39.9967 139.054 40.493 138.624 40.8175C138.193 41.1421 137.647 41.3011 136.979 41.3011C136.157 41.3011 135.482 41.0212 134.955 40.4676C134.429 39.914 134.165 39.1505 134.165 38.1897C134.165 37.1716 134.429 36.3763 134.962 35.8164C135.495 35.2501 136.195 34.9701 137.056 34.9701C137.814 34.9701 138.424 35.1928 138.9 35.6318C139.183 35.8927 139.395 36.2681 139.529 36.7581L138.296 37.0508C138.225 36.7326 138.071 36.4845 137.84 36.2999C137.609 36.1154 137.326 36.0263 136.992 36.0263C136.536 36.0263 136.163 36.1918 135.874 36.5163C135.591 36.8408 135.444 37.3689 135.444 38.1006C135.444 38.8769 135.585 39.4241 135.868 39.755C136.15 40.0858 136.516 40.2449 136.966 40.2449C137.3 40.2449 137.583 40.1431 137.821 39.9331C138.058 39.7231 138.232 39.3986 138.335 38.9469H138.341Z" fill="black"/>
<path d="M140.339 38.9151C140.339 38.5269 140.435 38.1452 140.628 37.7825C140.821 37.4198 141.097 37.1398 141.45 36.949C141.804 36.7581 142.202 36.6626 142.639 36.6626C143.313 36.6626 143.872 36.879 144.303 37.318C144.733 37.757 144.952 38.3042 144.952 38.9723C144.952 39.6404 144.733 40.2004 144.296 40.6394C143.859 41.0784 143.307 41.3011 142.645 41.3011C142.234 41.3011 141.842 41.2121 141.47 41.0275C141.097 40.843 140.814 40.5758 140.622 40.2194C140.429 39.8631 140.333 39.4305 140.333 38.9214L140.339 38.9151ZM141.553 38.9787C141.553 39.4177 141.656 39.755 141.868 39.9904C142.08 40.2258 142.337 40.3403 142.645 40.3403C142.954 40.3403 143.211 40.2258 143.423 39.9904C143.635 39.755 143.737 39.4177 143.737 38.9723C143.737 38.5269 143.635 38.2024 143.423 37.967C143.211 37.7316 142.954 37.6171 142.645 37.6171C142.337 37.6171 142.074 37.7316 141.868 37.967C141.656 38.2024 141.553 38.5397 141.553 38.9787Z" fill="black"/>
<path d="M145.806 36.7644H146.898V37.3689C147.29 36.8981 147.753 36.6626 148.292 36.6626C148.581 36.6626 148.825 36.7199 149.037 36.8344C149.249 36.949 149.423 37.1271 149.558 37.3625C149.757 37.1271 149.969 36.949 150.194 36.8344C150.419 36.7199 150.663 36.6626 150.926 36.6626C151.254 36.6626 151.53 36.7263 151.761 36.8599C151.986 36.9935 152.16 37.1844 152.269 37.4453C152.352 37.6361 152.391 37.9416 152.391 38.3615V41.1993H151.209V38.6606C151.209 38.2215 151.17 37.9352 151.087 37.8079C150.978 37.6425 150.811 37.5598 150.579 37.5598C150.412 37.5598 150.258 37.6107 150.11 37.7125C149.963 37.8143 149.86 37.9606 149.796 38.1515C149.731 38.3424 149.699 38.6478 149.699 39.0678V41.1993H148.517V38.7687C148.517 38.3361 148.498 38.0561 148.453 37.9352C148.414 37.8079 148.344 37.7189 148.26 37.6552C148.177 37.5916 148.055 37.5662 147.9 37.5662C147.72 37.5662 147.553 37.6171 147.406 37.7125C147.258 37.8079 147.155 37.9479 147.091 38.1324C147.027 38.317 146.995 38.6224 146.995 39.0487V41.2057H145.812V36.7708L145.806 36.7644Z" fill="black"/>
<path d="M153.541 36.7644H154.646V37.4134C154.787 37.1907 154.98 37.0126 155.23 36.8726C155.481 36.7326 155.744 36.6626 156.046 36.6626C156.567 36.6626 157.01 36.8662 157.37 37.2671C157.729 37.668 157.916 38.2342 157.916 38.9532C157.916 39.6722 157.736 40.2704 157.37 40.6839C157.003 41.0975 156.56 41.3011 156.04 41.3011C155.796 41.3011 155.571 41.2502 155.365 41.1548C155.16 41.0593 154.954 40.8875 154.729 40.6521V42.8855H153.547V36.7581L153.541 36.7644ZM154.716 38.9023C154.716 39.3986 154.813 39.7677 155.018 40.0095C155.218 40.2449 155.462 40.3658 155.751 40.3658C156.04 40.3658 156.258 40.2576 156.438 40.0349C156.618 39.8186 156.714 39.4559 156.714 38.9596C156.714 38.4951 156.618 38.1515 156.432 37.9225C156.245 37.6998 156.008 37.5852 155.731 37.5852C155.455 37.5852 155.205 37.6934 155.012 37.9161C154.819 38.1388 154.723 38.4633 154.723 38.9023H154.716Z" fill="black"/>
<path d="M159.74 38.1134L158.667 37.9225C158.789 37.4962 158.995 37.178 159.291 36.968C159.586 36.7581 160.023 36.6563 160.608 36.6563C161.134 36.6563 161.533 36.7199 161.79 36.8408C162.047 36.9617 162.233 37.1208 162.336 37.3116C162.438 37.5025 162.496 37.8525 162.496 38.3615L162.483 39.7295C162.483 40.1176 162.503 40.404 162.541 40.5949C162.58 40.7857 162.65 40.9766 162.753 41.193H161.584C161.552 41.1166 161.513 41.0021 161.468 40.8494C161.449 40.7794 161.436 40.7348 161.43 40.7094C161.224 40.9066 161.012 41.053 160.781 41.1484C160.55 41.2439 160.306 41.2948 160.042 41.2948C159.58 41.2948 159.22 41.1739 158.95 40.9257C158.68 40.6776 158.552 40.3658 158.552 39.984C158.552 39.7359 158.61 39.5132 158.732 39.3159C158.854 39.1187 159.021 38.9723 159.239 38.8642C159.458 38.7624 159.772 38.6669 160.184 38.5906C160.736 38.4888 161.121 38.3933 161.333 38.3042V38.1897C161.333 37.967 161.276 37.8016 161.166 37.7061C161.057 37.6107 160.845 37.5598 160.53 37.5598C160.318 37.5598 160.158 37.598 160.036 37.6807C159.92 37.7634 159.824 37.9097 159.747 38.1134H159.74ZM161.327 39.0678C161.173 39.1187 160.935 39.1759 160.608 39.2459C160.28 39.3159 160.061 39.3859 159.965 39.4495C159.811 39.5577 159.734 39.6977 159.734 39.8631C159.734 40.0286 159.798 40.1685 159.92 40.2894C160.042 40.4103 160.203 40.4676 160.396 40.4676C160.608 40.4676 160.813 40.3976 161.006 40.2576C161.147 40.1495 161.244 40.0222 161.289 39.8695C161.321 39.7677 161.333 39.5768 161.333 39.2968V39.0614L161.327 39.0678Z" fill="black"/>
<path d="M167.732 41.1993H166.544V38.9342C166.544 38.4569 166.518 38.1452 166.467 38.0052C166.415 37.8652 166.332 37.757 166.222 37.6743C166.107 37.598 165.972 37.5598 165.811 37.5598C165.606 37.5598 165.419 37.6171 165.259 37.7252C165.098 37.8334 164.982 37.9861 164.925 38.1706C164.867 38.3551 164.835 38.6924 164.835 39.1887V41.1993H163.646V36.7644H164.745V37.4134C165.137 36.9108 165.625 36.6626 166.222 36.6626C166.486 36.6626 166.723 36.7072 166.942 36.8026C167.16 36.8981 167.321 37.0126 167.43 37.1589C167.539 37.3053 167.616 37.4707 167.661 37.6489C167.706 37.827 167.726 38.0943 167.726 38.4379V41.193L167.732 41.1993Z" fill="black"/>
<path d="M168.375 36.7644H169.634L170.707 39.914L171.754 36.7644H172.981L171.4 41.0339L171.118 41.8038C171.015 42.0647 170.912 42.2619 170.822 42.3955C170.726 42.5292 170.623 42.6437 170.495 42.7264C170.372 42.8091 170.225 42.8791 170.045 42.9237C169.865 42.9682 169.666 42.9936 169.441 42.9936C169.216 42.9936 168.991 42.9682 168.773 42.9237L168.67 42.0074C168.856 42.0456 169.023 42.0647 169.171 42.0647C169.447 42.0647 169.653 41.982 169.781 41.8229C169.916 41.6638 170.013 41.4602 170.083 41.2121L168.381 36.7644H168.375Z" fill="black"/>
</g>
<defs>
<clipPath id="clip0_5_194">
<rect width="173" height="43" fill="white"/>
</clipPath>
</defs>
</svg>
