<svg width="211" height="60" viewBox="0 0 211 60" fill="none" xmlns="http://www.w3.org/2000/svg">
<g clip-path="url(#clip0_5_330)" filter="url(#filter0_d_5_330)">
<path d="M92.4418 29.4895C92.4418 34.5502 88.4858 37.6132 82.3055 37.6132H73.595V21.3658H82.3055C88.4858 21.3658 92.4418 24.4288 92.4418 29.4895ZM88.6276 29.4895C88.6276 26.1453 85.9555 24.525 82.0219 24.525H77.3419V34.4614H82.0219C85.9555 34.4614 88.6276 32.8337 88.6276 29.4969V29.4895Z" fill="white"/>
<path d="M112.968 34.4984V37.6058H96.0842V21.3584H112.729V24.4658H99.8088V27.81H110.602V30.9174H99.8088V34.491H112.968V34.4984Z" fill="white"/>
<path d="M132.031 34.4096V37.6132H116.693V21.3658H120.44V34.4096H132.031Z" fill="white"/>
<path d="M159.977 30.185V37.6132H156.371V30.3699C156.371 28.3723 155.364 27.2107 153.259 27.2107C151.408 27.2107 150.027 28.1873 149.139 29.9038V35.0755L149.161 37.6058H145.534V30.3625C145.534 28.3649 144.526 27.2033 142.421 27.2033C140.57 27.2033 139.234 28.1281 138.323 29.8224V37.5984H134.696V24.8136H138.323V27.0849C139.331 25.3685 141.249 24.3474 143.615 24.3474C146.399 24.3474 148.086 25.7162 148.766 27.7582C149.654 25.7384 151.736 24.3474 154.453 24.3474C158.245 24.3474 159.977 26.8778 159.977 30.1702V30.185Z" fill="white"/>
<path d="M163.507 21.4842C163.507 20.3966 164.418 19.6493 165.709 19.6493C167 19.6493 167.866 20.3892 167.866 21.4842C167.866 22.5792 166.978 23.2969 165.709 23.2969C164.44 23.2969 163.507 22.5274 163.507 21.4842ZM167.553 37.6132H163.925V24.8284H167.553V37.6132Z" fill="white"/>
<path d="M171.561 37.6132V24.8284H175.189V27.0775C176.241 25.3833 178.323 24.3622 180.809 24.3622C184.675 24.3622 186.661 26.7964 186.661 30.2072V37.6132H183.033V30.4439C183.033 28.3575 181.906 27.2181 179.757 27.2181C177.838 27.2181 176.241 28.0986 175.189 29.9334V37.6132H171.561Z" fill="white"/>
<path d="M202.373 26.9148V20.441H206V37.6132H202.373V35.549C201.32 36.9621 199.402 38.1015 196.752 38.1015C192.654 38.1015 189.796 35.4084 189.796 31.2356C189.796 27.0628 192.654 24.3697 196.752 24.3697C199.394 24.3697 201.32 25.509 202.373 26.9222V26.9148ZM202.35 33.0187V29.4451C201.223 27.9802 199.566 27.3587 197.67 27.3587C194.864 27.3587 193.266 28.7275 193.266 31.2356C193.266 33.7437 194.856 35.1125 197.67 35.1125C199.566 35.1125 201.231 34.4836 202.35 33.0261V33.0187Z" fill="white"/>
<path d="M47.6721 24.1551C48.9559 21.7061 50.083 19.1166 50.486 16.4605C50.6801 15.1361 50.6652 13.797 50.2845 12.5762C48.3513 6.33916 38.2151 4.57089 32.6917 5.0814C24.1453 5.88045 17.0769 10.8893 14.2181 19.1092C13.9867 19.7455 13.8225 20.404 13.6807 21.0551C13.6583 21.1734 13.6359 21.2918 13.6135 21.4176C17.3456 21.0773 34.1472 20.071 42.7682 31.0876C42.813 31.0358 42.8578 30.984 42.9025 30.9322C44.6715 28.7644 46.3808 26.604 47.6721 24.1551Z" fill="white"/>
<path d="M55.7855 16.5271C54.4868 14.2927 52.8745 12.3469 51.0384 10.7044C51.2996 11.1705 51.5161 11.6588 51.6654 12.1619C52.1207 13.6564 52.1057 15.2027 51.8893 16.6677C51.6654 18.1326 51.2324 19.5383 50.71 20.8849C50.18 22.2315 49.5754 23.5336 48.8738 24.7988C47.4855 27.3291 45.7613 29.6597 43.7833 31.7387C41.8426 33.7807 39.5064 35.7562 37.1254 37.2507C29.6389 42.8515 21.5404 45.478 19.7117 46.0255C20.7119 47.1353 21.824 48.1489 23.0556 49.0071C24.1827 49.7988 25.3993 50.4647 26.6757 50.9752C27.9595 51.4783 29.303 51.826 30.6689 52.0036C32.0274 52.1737 33.4456 52.2033 34.8488 52.1885C36.2521 52.1663 37.6553 52.085 39.0511 51.9C41.6187 51.5671 44.1789 50.9456 46.5077 49.7322C46.6346 49.6656 46.754 49.599 46.8809 49.525C58.5323 42.8589 62.5256 28.0912 55.793 16.5419L55.7855 16.5271Z" fill="white"/>
<path d="M22.3989 49.9097C20.9434 48.9183 19.6371 47.7197 18.4877 46.4102C17.7263 45.5445 17.0247 44.6197 16.3903 43.6653C14.8079 41.2385 13.6286 38.5676 12.8672 35.7857C12.494 34.3948 12.2328 32.9595 12.0611 31.5389C11.8894 30.111 11.7924 28.683 11.7775 27.2477C11.7626 25.8124 11.8297 24.377 11.979 22.9417C11.979 22.8825 11.9939 22.8159 12.0014 22.7567C12.076 22.1057 12.1507 21.462 12.2776 20.7887C12.4194 20.0636 12.606 19.346 12.8448 18.6505C13.0389 18.0734 13.2628 17.5111 13.5091 16.9562C12.2179 19.2128 10.6056 21.8763 9.5084 23.1563C8.17233 24.7174 6.28392 27.5363 5.41809 30.7843C5.41809 30.8065 5.40316 30.8361 5.3957 30.8582C5.14192 31.8423 5.00757 32.8781 5.00757 33.9435C5.00757 35.1421 5.17924 36.2962 5.5002 37.3912C5.91819 38.8414 6.60488 40.2101 7.50803 41.4161C8.61272 42.881 10.0906 44.2054 11.5536 45.3152C14.0018 47.1649 17.1889 47.8825 19.988 49.0515" fill="white"/>
<path d="M80.7678 52.9062H79.1929L78.5659 51.2859H75.6922L75.1025 52.9062H73.5649L76.364 45.7813H77.9016L80.7752 52.9062H80.7678ZM78.0956 50.0873L77.1029 47.446L76.1326 50.0873H78.0956Z" fill="white"/>
<path d="M83.9474 45.7813H86.5971C87.1943 45.7813 87.6496 45.8257 87.9631 45.9145C88.3811 46.0402 88.7468 46.2548 89.0454 46.5729C89.3439 46.8837 89.5753 47.2684 89.7321 47.7271C89.8888 48.1784 89.9709 48.7407 89.9709 49.414C89.9709 49.9985 89.8963 50.5016 89.747 50.9307C89.5679 51.4486 89.3141 51.8704 88.9782 52.1885C88.7244 52.4327 88.3885 52.6176 87.9556 52.7582C87.6347 52.8618 87.2092 52.9062 86.6718 52.9062H83.9399V45.7813H83.9474ZM85.3954 46.9873V51.7076H86.4777C86.8808 51.7076 87.1719 51.6854 87.3585 51.641C87.5899 51.5818 87.7914 51.4856 87.9407 51.3451C88.0974 51.2045 88.2243 50.9751 88.3213 50.657C88.4184 50.3388 88.4706 49.9023 88.4706 49.3548C88.4706 48.8073 88.4184 48.3856 88.3213 48.0897C88.2243 47.7937 88.09 47.5644 87.9108 47.4016C87.7317 47.2388 87.5078 47.1278 87.2391 47.0686C87.0375 47.0243 86.6419 47.0021 86.0523 47.0021H85.4029L85.3954 46.9873Z" fill="white"/>
<path d="M94.2031 51.2637L95.5765 51.493C95.3973 51.9887 95.1212 52.3735 94.7405 52.6324C94.3598 52.8914 93.8821 53.0246 93.3148 53.0246C92.4117 53.0246 91.7399 52.7286 91.307 52.1441C90.9637 51.678 90.792 51.0787 90.792 50.3684C90.792 49.5102 91.0159 48.8443 91.4712 48.356C91.9191 47.8751 92.4938 47.631 93.1805 47.631C93.9568 47.631 94.5688 47.8825 95.0167 48.393C95.4645 48.9035 95.681 49.673 95.6586 50.7236H92.2102C92.2176 51.1305 92.3296 51.4413 92.546 51.6706C92.7625 51.9 93.0237 52.0109 93.3372 52.0109C93.5537 52.0109 93.7328 51.9518 93.8821 51.8334C94.0314 51.715 94.1434 51.53 94.218 51.2711L94.2031 51.2637ZM94.2852 49.8875C94.2777 49.4954 94.1732 49.1921 93.9791 48.9849C93.7851 48.7777 93.5462 48.6742 93.2626 48.6742C92.964 48.6742 92.7103 48.7851 92.5162 48.9997C92.3221 49.2143 92.2251 49.5102 92.2251 49.8801H94.2852V49.8875Z" fill="white"/>
<path d="M96.7708 52.9062V45.7813H98.1516V52.9062H96.7708Z" fill="white"/>
<path d="M101.951 47.7493V48.8369H101.01V50.9159C101.01 51.3377 101.018 51.5818 101.04 51.6484C101.063 51.715 101.1 51.7742 101.16 51.8186C101.227 51.863 101.301 51.8852 101.391 51.8852C101.518 51.8852 101.704 51.8408 101.943 51.752L102.063 52.81C101.742 52.9432 101.384 53.0172 100.973 53.0172C100.727 53.0172 100.503 52.9728 100.301 52.8914C100.1 52.81 99.9579 52.699 99.8608 52.5732C99.7713 52.4401 99.7041 52.2625 99.6668 52.0405C99.6369 51.8852 99.622 51.5596 99.622 51.0787V48.8295H98.9875V47.7419H99.622V46.7135L101.003 45.9145V47.7345H101.943L101.951 47.7493Z" fill="white"/>
<path d="M103.936 49.3178L102.69 49.0959C102.832 48.6002 103.07 48.2302 103.414 47.9861C103.757 47.7419 104.265 47.6235 104.944 47.6235C105.556 47.6235 106.019 47.6975 106.317 47.8381C106.616 47.9787 106.832 48.1636 106.952 48.3856C107.071 48.6076 107.138 49.0145 107.138 49.6064L107.123 51.1971C107.123 51.6484 107.146 51.9813 107.191 52.2033C107.235 52.4253 107.318 52.6472 107.437 52.8988H106.078C106.041 52.81 105.996 52.6768 105.944 52.4992C105.922 52.4179 105.907 52.3661 105.899 52.3365C105.66 52.5658 105.414 52.736 105.145 52.847C104.877 52.958 104.593 53.0171 104.287 53.0171C103.75 53.0171 103.332 52.8766 103.018 52.588C102.705 52.2995 102.555 51.9369 102.555 51.493C102.555 51.2045 102.623 50.9455 102.764 50.7162C102.906 50.4868 103.1 50.3166 103.354 50.1909C103.608 50.0725 103.974 49.9615 104.451 49.8727C105.093 49.7543 105.541 49.6434 105.787 49.5398V49.4066C105.787 49.1477 105.72 48.9553 105.593 48.8443C105.466 48.7333 105.22 48.6741 104.854 48.6741C104.608 48.6741 104.421 48.7185 104.28 48.8147C104.145 48.9109 104.033 49.0811 103.944 49.3178H103.936ZM105.78 50.4276C105.601 50.4868 105.325 50.5534 104.944 50.6348C104.563 50.7162 104.309 50.7976 104.198 50.8715C104.018 50.9973 103.929 51.1601 103.929 51.3524C103.929 51.5448 104.003 51.7076 104.145 51.8482C104.287 51.9887 104.474 52.0553 104.698 52.0553C104.944 52.0553 105.183 51.9739 105.407 51.8112C105.571 51.6854 105.683 51.5374 105.735 51.3598C105.772 51.2415 105.787 51.0195 105.787 50.694V50.4202L105.78 50.4276Z" fill="white"/>
<path d="M117.394 52.9062H115.819L115.192 51.2859H112.318L111.729 52.9062H110.191L112.99 45.7813H114.528L117.401 52.9062H117.394ZM114.722 50.0873L113.729 47.446L112.759 50.0873H114.722Z" fill="white"/>
<path d="M117.67 51.4338L119.051 51.2267C119.111 51.493 119.23 51.6928 119.409 51.8334C119.588 51.9739 119.842 52.0405 120.163 52.0405C120.521 52.0405 120.79 51.9739 120.969 51.8482C121.089 51.7594 121.148 51.6336 121.148 51.4856C121.148 51.382 121.119 51.2933 121.051 51.2267C120.984 51.1601 120.827 51.1009 120.589 51.0491C119.476 50.805 118.775 50.583 118.476 50.3832C118.066 50.1021 117.857 49.7174 117.857 49.2216C117.857 48.7777 118.036 48.4004 118.394 48.0971C118.752 47.7937 119.305 47.6383 120.051 47.6383C120.798 47.6383 121.29 47.7493 121.641 47.9861C121.992 48.2228 122.223 48.5558 122.358 49.0071L121.059 49.2438C121.007 49.0441 120.902 48.8887 120.745 48.7851C120.589 48.6815 120.372 48.6224 120.081 48.6224C119.715 48.6224 119.462 48.6741 119.305 48.7703C119.2 48.8443 119.148 48.9331 119.148 49.0441C119.148 49.1403 119.193 49.2216 119.282 49.2882C119.409 49.377 119.835 49.5102 120.566 49.673C121.298 49.8357 121.813 50.0429 122.104 50.2796C122.395 50.5238 122.537 50.8641 122.537 51.2933C122.537 51.7668 122.335 52.1737 121.94 52.514C121.544 52.8544 120.954 53.0245 120.171 53.0245C119.462 53.0245 118.902 52.884 118.484 52.5954C118.073 52.3069 117.797 51.9221 117.67 51.4338Z" fill="white"/>
<path d="M123.253 51.4338L124.634 51.2267C124.694 51.493 124.813 51.6928 124.992 51.8334C125.171 51.9739 125.425 52.0405 125.746 52.0405C126.104 52.0405 126.373 51.9739 126.552 51.8482C126.672 51.7594 126.731 51.6336 126.731 51.4856C126.731 51.382 126.702 51.2933 126.634 51.2267C126.567 51.1601 126.41 51.1009 126.172 51.0491C125.059 50.805 124.358 50.583 124.059 50.3832C123.649 50.1021 123.44 49.7174 123.44 49.2216C123.44 48.7777 123.619 48.4004 123.977 48.0971C124.335 47.7937 124.888 47.6383 125.634 47.6383C126.381 47.6383 126.873 47.7493 127.224 47.9861C127.575 48.2228 127.806 48.5558 127.941 49.0071L126.642 49.2438C126.59 49.0441 126.485 48.8887 126.328 48.7851C126.172 48.6815 125.955 48.6224 125.664 48.6224C125.298 48.6224 125.045 48.6741 124.888 48.7703C124.783 48.8443 124.731 48.9331 124.731 49.0441C124.731 49.1403 124.776 49.2216 124.865 49.2882C124.992 49.377 125.418 49.5102 126.149 49.673C126.881 49.8357 127.396 50.0429 127.687 50.2796C127.978 50.5238 128.12 50.8641 128.12 51.2933C128.12 51.7668 127.918 52.1737 127.523 52.514C127.127 52.8544 126.537 53.0245 125.754 53.0245C125.045 53.0245 124.485 52.884 124.067 52.5954C123.656 52.3069 123.38 51.9221 123.253 51.4338Z" fill="white"/>
<path d="M129.001 50.2501C129.001 49.7988 129.113 49.3548 129.337 48.9331C129.56 48.5114 129.881 48.1858 130.292 47.9639C130.702 47.7419 131.165 47.631 131.673 47.631C132.457 47.631 133.106 47.8825 133.606 48.393C134.106 48.9035 134.36 49.5398 134.36 50.3167C134.36 51.0935 134.106 51.7446 133.598 52.2551C133.091 52.7656 132.449 53.0246 131.68 53.0246C131.203 53.0246 130.747 52.921 130.314 52.7064C129.881 52.4919 129.553 52.1811 129.329 51.7668C129.105 51.3525 128.993 50.8494 128.993 50.2575L129.001 50.2501ZM130.411 50.3241C130.411 50.8346 130.531 51.2267 130.777 51.5004C131.023 51.7742 131.322 51.9074 131.68 51.9074C132.039 51.9074 132.337 51.7742 132.583 51.5004C132.83 51.2267 132.949 50.8346 132.949 50.3167C132.949 49.7988 132.83 49.4214 132.583 49.1477C132.337 48.8739 132.039 48.7407 131.68 48.7407C131.322 48.7407 131.016 48.8739 130.777 49.1477C130.531 49.4214 130.411 49.8135 130.411 50.3241Z" fill="white"/>
<path d="M139.995 49.2734L138.637 49.5176C138.592 49.2512 138.487 49.0441 138.323 48.9109C138.159 48.7777 137.95 48.7037 137.696 48.7037C137.353 48.7037 137.077 48.8221 136.875 49.0589C136.674 49.2956 136.569 49.6878 136.569 50.2353C136.569 50.8493 136.674 51.2785 136.883 51.53C137.092 51.7816 137.368 51.9073 137.719 51.9073C137.98 51.9073 138.196 51.8334 138.36 51.6854C138.525 51.5374 138.644 51.2859 138.711 50.9233L140.062 51.1527C139.92 51.7668 139.652 52.2329 139.256 52.5436C138.861 52.8544 138.323 53.0171 137.651 53.0171C136.89 53.0171 136.285 52.7804 135.83 52.2995C135.375 51.826 135.151 51.1675 135.151 50.324C135.151 49.4806 135.375 48.8073 135.83 48.3338C136.285 47.8603 136.897 47.6235 137.674 47.6235C138.308 47.6235 138.808 47.7567 139.189 48.0305C139.562 48.3042 139.831 48.7111 139.995 49.266V49.2734Z" fill="white"/>
<path d="M141.033 47.0464V45.7813H142.414V47.0464H141.033ZM141.033 52.9062V47.7493H142.414V52.9062H141.033Z" fill="white"/>
<path d="M144.854 49.3178L143.608 49.0959C143.75 48.6002 143.988 48.2302 144.332 47.9861C144.675 47.7419 145.183 47.6235 145.862 47.6235C146.474 47.6235 146.937 47.6975 147.235 47.8381C147.534 47.9787 147.75 48.1636 147.87 48.3856C147.989 48.6076 148.056 49.0145 148.056 49.6064L148.041 51.1971C148.041 51.6484 148.064 51.9813 148.109 52.2033C148.153 52.4253 148.235 52.6472 148.355 52.8988H146.996C146.959 52.81 146.914 52.6768 146.862 52.4992C146.84 52.4179 146.825 52.3661 146.817 52.3365C146.578 52.5658 146.332 52.736 146.063 52.847C145.795 52.958 145.511 53.0171 145.205 53.0171C144.668 53.0171 144.25 52.8766 143.936 52.588C143.623 52.2995 143.473 51.9369 143.473 51.493C143.473 51.2045 143.541 50.9455 143.682 50.7162C143.824 50.4868 144.018 50.3166 144.272 50.1909C144.526 50.0725 144.892 49.9615 145.369 49.8727C146.011 49.7543 146.459 49.6434 146.705 49.5398V49.4066C146.705 49.1477 146.638 48.9553 146.511 48.8443C146.384 48.7333 146.138 48.6741 145.772 48.6741C145.526 48.6741 145.339 48.7185 145.198 48.8147C145.063 48.9109 144.951 49.0811 144.862 49.3178H144.854ZM146.698 50.4276C146.519 50.4868 146.243 50.5534 145.862 50.6348C145.481 50.7162 145.227 50.7976 145.115 50.8715C144.936 50.9973 144.847 51.1601 144.847 51.3524C144.847 51.5448 144.921 51.7076 145.063 51.8482C145.205 51.9887 145.392 52.0553 145.616 52.0553C145.862 52.0553 146.101 51.9739 146.325 51.8112C146.489 51.6854 146.601 51.5374 146.653 51.3598C146.69 51.2415 146.705 51.0195 146.705 50.694V50.4202L146.698 50.4276Z" fill="white"/>
<path d="M151.796 47.7493V48.8369H150.855V50.9159C150.855 51.3377 150.863 51.5818 150.885 51.6484C150.908 51.715 150.945 51.7742 151.005 51.8186C151.072 51.863 151.146 51.8852 151.236 51.8852C151.363 51.8852 151.549 51.8408 151.788 51.752L151.908 52.81C151.587 52.9432 151.228 53.0172 150.818 53.0172C150.572 53.0172 150.348 52.9728 150.146 52.8914C149.945 52.81 149.803 52.699 149.706 52.5732C149.616 52.4401 149.549 52.2625 149.512 52.0405C149.482 51.8852 149.467 51.5596 149.467 51.0787V48.8295H148.833V47.7419H149.467V46.7135L150.848 45.9145V47.7345H151.788L151.796 47.7493Z" fill="white"/>
<path d="M155.767 51.2637L157.14 51.493C156.961 51.9887 156.685 52.3735 156.304 52.6324C155.924 52.8914 155.446 53.0246 154.879 53.0246C153.975 53.0246 153.304 52.7286 152.871 52.1441C152.527 51.678 152.356 51.0787 152.356 50.3684C152.356 49.5102 152.58 48.8443 153.035 48.356C153.483 47.8751 154.058 47.631 154.744 47.631C155.52 47.631 156.133 47.8825 156.58 48.393C157.028 48.9035 157.245 49.673 157.222 50.7236H153.774C153.781 51.1305 153.893 51.4413 154.11 51.6706C154.326 51.9 154.587 52.0109 154.901 52.0109C155.117 52.0109 155.297 51.9518 155.446 51.8334C155.595 51.715 155.707 51.53 155.782 51.2711L155.767 51.2637ZM155.841 49.8875C155.834 49.4954 155.729 49.1921 155.535 48.9849C155.341 48.7777 155.102 48.6742 154.819 48.6742C154.52 48.6742 154.267 48.7851 154.072 48.9997C153.878 49.2143 153.781 49.5102 153.781 49.8801H155.841V49.8875Z" fill="white"/>
<path d="M165.731 50.2871L167.135 50.731C166.918 51.5078 166.56 52.0849 166.06 52.4623C165.56 52.8396 164.925 53.0246 164.149 53.0246C163.194 53.0246 162.41 52.699 161.798 52.0553C161.186 51.4116 160.88 50.5238 160.88 49.4066C160.88 48.2228 161.186 47.298 161.805 46.6469C162.425 45.9884 163.238 45.6629 164.238 45.6629C165.119 45.6629 165.828 45.9219 166.381 46.4324C166.709 46.7357 166.955 47.1722 167.112 47.7419L165.679 48.0823C165.597 47.7123 165.418 47.4238 165.149 47.2092C164.88 46.9947 164.552 46.8911 164.164 46.8911C163.634 46.8911 163.201 47.0834 162.865 47.4608C162.537 47.8381 162.365 48.4522 162.365 49.303C162.365 50.2057 162.529 50.8419 162.858 51.2267C163.186 51.6114 163.611 51.7964 164.134 51.7964C164.522 51.7964 164.851 51.678 165.127 51.4338C165.403 51.1897 165.604 50.8124 165.724 50.2871H165.731Z" fill="white"/>
<path d="M168.053 50.2501C168.053 49.7988 168.165 49.3548 168.389 48.9331C168.612 48.5114 168.933 48.1858 169.344 47.9639C169.754 47.7419 170.217 47.631 170.725 47.631C171.508 47.631 172.158 47.8825 172.658 48.393C173.158 48.9035 173.412 49.5398 173.412 50.3167C173.412 51.0935 173.158 51.7446 172.65 52.2551C172.143 52.7656 171.501 53.0246 170.732 53.0246C170.255 53.0246 169.799 52.921 169.366 52.7064C168.933 52.4919 168.605 52.1811 168.381 51.7668C168.157 51.3525 168.045 50.8494 168.045 50.2575L168.053 50.2501ZM169.463 50.3241C169.463 50.8346 169.583 51.2267 169.829 51.5004C170.075 51.7742 170.374 51.9074 170.732 51.9074C171.091 51.9074 171.389 51.7742 171.635 51.5004C171.882 51.2267 172.001 50.8346 172.001 50.3167C172.001 49.7988 171.882 49.4214 171.635 49.1477C171.389 48.8739 171.091 48.7407 170.732 48.7407C170.374 48.7407 170.068 48.8739 169.829 49.1477C169.583 49.4214 169.463 49.8135 169.463 50.3241Z" fill="white"/>
<path d="M174.405 47.7493H175.673V48.4522C176.129 47.9047 176.666 47.631 177.293 47.631C177.629 47.631 177.913 47.6975 178.159 47.8307C178.405 47.9639 178.607 48.1711 178.764 48.4448C178.995 48.1711 179.241 47.9639 179.502 47.8307C179.764 47.6975 180.047 47.631 180.353 47.631C180.734 47.631 181.055 47.7049 181.324 47.8603C181.585 48.0157 181.787 48.2376 181.913 48.541C182.01 48.7629 182.055 49.1181 182.055 49.6064V52.9062H180.682V49.9541C180.682 49.4436 180.637 49.1107 180.54 48.9627C180.413 48.7703 180.219 48.6742 179.95 48.6742C179.756 48.6742 179.577 48.7333 179.405 48.8517C179.234 48.9701 179.114 49.1403 179.04 49.3622C178.965 49.5842 178.928 49.9393 178.928 50.4276V52.9062H177.554V50.0799C177.554 49.5768 177.532 49.2513 177.48 49.1107C177.435 48.9627 177.353 48.8591 177.256 48.7851C177.159 48.7112 177.017 48.6816 176.838 48.6816C176.629 48.6816 176.435 48.7407 176.263 48.8517C176.091 48.9627 175.972 49.1255 175.897 49.34C175.823 49.5546 175.785 49.9097 175.785 50.4054V52.9136H174.412V47.7567L174.405 47.7493Z" fill="white"/>
<path d="M183.391 47.7493H184.675V48.504C184.839 48.245 185.063 48.0379 185.354 47.8751C185.646 47.7123 185.952 47.631 186.302 47.631C186.907 47.631 187.422 47.8677 187.84 48.3338C188.258 48.7999 188.474 49.4584 188.474 50.2945C188.474 51.1305 188.265 51.826 187.84 52.3069C187.414 52.7878 186.899 53.0246 186.295 53.0246C186.011 53.0246 185.75 52.9654 185.511 52.8544C185.272 52.7434 185.033 52.5436 184.772 52.2699V54.8668H183.399V47.7419L183.391 47.7493ZM184.757 50.2353C184.757 50.8124 184.869 51.2415 185.108 51.5226C185.339 51.7964 185.623 51.937 185.959 51.937C186.295 51.937 186.549 51.8112 186.758 51.5522C186.967 51.3007 187.079 50.879 187.079 50.3019C187.079 49.7618 186.967 49.3622 186.75 49.0959C186.534 48.8369 186.258 48.7038 185.937 48.7038C185.616 48.7038 185.325 48.8295 185.101 49.0885C184.877 49.3474 184.765 49.7248 184.765 50.2353H184.757Z" fill="white"/>
<path d="M190.594 49.3178L189.348 49.0959C189.49 48.6002 189.728 48.2302 190.072 47.9861C190.415 47.7419 190.923 47.6235 191.602 47.6235C192.214 47.6235 192.677 47.6975 192.975 47.8381C193.274 47.9787 193.49 48.1636 193.61 48.3856C193.729 48.6076 193.796 49.0145 193.796 49.6064L193.781 51.1971C193.781 51.6484 193.804 51.9813 193.849 52.2033C193.893 52.4253 193.975 52.6472 194.095 52.8988H192.736C192.699 52.81 192.654 52.6768 192.602 52.4992C192.58 52.4179 192.565 52.3661 192.557 52.3365C192.318 52.5658 192.072 52.736 191.803 52.847C191.535 52.958 191.251 53.0171 190.945 53.0171C190.408 53.0171 189.99 52.8766 189.676 52.588C189.363 52.2995 189.213 51.9369 189.213 51.493C189.213 51.2045 189.281 50.9455 189.422 50.7162C189.564 50.4868 189.758 50.3166 190.012 50.1909C190.266 50.0725 190.632 49.9615 191.109 49.8727C191.751 49.7543 192.199 49.6434 192.445 49.5398V49.4066C192.445 49.1477 192.378 48.9553 192.251 48.8443C192.124 48.7333 191.878 48.6741 191.512 48.6741C191.266 48.6741 191.079 48.7185 190.938 48.8147C190.803 48.9109 190.691 49.0811 190.602 49.3178H190.594ZM192.438 50.4276C192.259 50.4868 191.983 50.5534 191.602 50.6348C191.221 50.7162 190.967 50.7976 190.855 50.8715C190.676 50.9973 190.587 51.1601 190.587 51.3524C190.587 51.5448 190.661 51.7076 190.803 51.8482C190.945 51.9887 191.132 52.0553 191.356 52.0553C191.602 52.0553 191.841 51.9739 192.065 51.8112C192.229 51.6854 192.341 51.5374 192.393 51.3598C192.43 51.2415 192.445 51.0195 192.445 50.694V50.4202L192.438 50.4276Z" fill="white"/>
<path d="M199.879 52.9062H198.499V50.2723C198.499 49.7174 198.469 49.3548 198.409 49.1921C198.349 49.0293 198.252 48.9035 198.125 48.8073C197.991 48.7186 197.834 48.6742 197.648 48.6742C197.409 48.6742 197.192 48.7407 197.006 48.8665C196.819 48.9923 196.685 49.1699 196.618 49.3844C196.551 49.599 196.513 49.9911 196.513 50.5682V52.9062H195.132V47.7493H196.409V48.504C196.864 47.9195 197.431 47.631 198.125 47.631C198.431 47.631 198.708 47.6827 198.961 47.7937C199.215 47.9047 199.402 48.0379 199.529 48.208C199.656 48.3782 199.745 48.5706 199.797 48.7777C199.85 48.9849 199.872 49.2956 199.872 49.6952V52.8988L199.879 52.9062Z" fill="white"/>
<path d="M200.626 47.7493H202.089L203.335 51.4117L204.552 47.7493H205.977L204.141 52.7138L203.813 53.609C203.693 53.9124 203.574 54.1418 203.47 54.2971C203.358 54.4525 203.238 54.5857 203.089 54.6819C202.947 54.778 202.775 54.8594 202.566 54.9112C202.357 54.963 202.126 54.9926 201.865 54.9926C201.604 54.9926 201.342 54.963 201.089 54.9112L200.969 53.8458C201.186 53.8902 201.38 53.9124 201.551 53.9124C201.872 53.9124 202.111 53.8162 202.26 53.6312C202.417 53.4463 202.529 53.2095 202.611 52.921L200.633 47.7493H200.626Z" fill="white"/>
</g>
<defs>
<filter id="filter0_d_5_330" x="0" y="0" width="211" height="60" filterUnits="userSpaceOnUse" color-interpolation-filters="sRGB">
<feFlood flood-opacity="0" result="BackgroundImageFix"/>
<feColorMatrix in="SourceAlpha" type="matrix" values="0 0 0 0 0 0 0 0 0 0 0 0 0 0 0 0 0 0 127 0" result="hardAlpha"/>
<feOffset/>
<feGaussianBlur stdDeviation="2.5"/>
<feComposite in2="hardAlpha" operator="out"/>
<feColorMatrix type="matrix" values="0 0 0 0 0 0 0 0 0 0 0 0 0 0 0 0 0 0 0.1 0"/>
<feBlend mode="normal" in2="BackgroundImageFix" result="effect1_dropShadow_5_330"/>
<feBlend mode="normal" in="SourceGraphic" in2="effect1_dropShadow_5_330" result="shape"/>
</filter>
<clipPath id="clip0_5_330">
<rect width="201" height="50" fill="white" transform="translate(5 5)"/>
</clipPath>
</defs>
</svg>
