<svg width="98" height="25" viewBox="0 0 98 25" fill="none" xmlns="http://www.w3.org/2000/svg">
<g clip-path="url(#clip0_115_9571)">
<path d="M42.6982 12.2447C42.6982 14.775 40.7891 16.3066 37.8066 16.3066H33.603V8.18286H37.8066C40.7891 8.18286 42.6982 9.71438 42.6982 12.2447ZM40.8576 12.2447C40.8576 10.5726 39.568 9.76247 37.6698 9.76247H35.4113V14.7307H37.6698C39.568 14.7307 40.8576 13.9168 40.8576 12.2484V12.2447Z" fill="black"/>
<path d="M52.6039 14.7492V16.3029H44.4561V8.1792H52.4887V9.73291H46.2535V11.405H51.4621V12.9587H46.2535V14.7455H52.6039V14.7492Z" fill="black"/>
<path d="M61.8036 14.7048V16.3066H54.4014V8.18286H56.2096V14.7048H61.8036Z" fill="black"/>
<path d="M75.2897 12.5926V16.3067H73.5499V12.6851C73.5499 11.6863 73.0636 11.1055 72.0478 11.1055C71.1545 11.1055 70.4881 11.5938 70.0595 12.452V15.0378L70.0703 16.303H68.3197V12.6814C68.3197 11.6826 67.8334 11.1018 66.8176 11.1018C65.9243 11.1018 65.2795 11.5642 64.8401 12.4113V16.2993H63.0895V9.90689H64.8401V11.0426C65.3264 10.1843 66.2521 9.67383 67.3939 9.67383C68.7375 9.67383 69.5516 10.3582 69.8794 11.3792C70.308 10.3693 71.313 9.67383 72.6241 9.67383C74.454 9.67383 75.2897 10.939 75.2897 12.5852V12.5926Z" fill="black"/>
<path d="M76.9935 8.24214C76.9935 7.69834 77.433 7.32471 78.0561 7.32471C78.6793 7.32471 79.0971 7.69464 79.0971 8.24214C79.0971 8.78964 78.6685 9.14847 78.0561 9.14847C77.4438 9.14847 76.9935 8.76374 76.9935 8.24214ZM78.9458 16.3067H77.1952V9.91423H78.9458V16.3067Z" fill="black"/>
<path d="M80.8801 16.3066V9.91421H82.6307V11.0388C83.1386 10.1917 84.1436 9.68115 85.3431 9.68115C87.209 9.68115 88.1671 10.8982 88.1671 12.6036V16.3066H86.4165V12.722C86.4165 11.6788 85.8726 11.1091 84.8352 11.1091C83.9095 11.1091 83.1386 11.5493 82.6307 12.4667V16.3066H80.8801Z" fill="black"/>
<path d="M95.7494 10.9574V7.72046H97.5V16.3066H95.7494V15.2745C95.2415 15.981 94.3158 16.5507 93.0371 16.5507C91.0595 16.5507 89.6799 15.2042 89.6799 13.1178C89.6799 11.0313 91.0595 9.6848 93.0371 9.6848C94.3122 9.6848 95.2415 10.2545 95.7494 10.9611V10.9574ZM95.7386 14.0093V12.2225C95.1947 11.4901 94.395 11.1793 93.4801 11.1793C92.1257 11.1793 91.3549 11.8637 91.3549 13.1178C91.3549 14.3718 92.1221 15.0562 93.4801 15.0562C94.395 15.0562 95.1983 14.7418 95.7386 14.013V14.0093Z" fill="black"/>
<path d="M21.0931 9.57757C21.7126 8.3531 22.2565 7.05834 22.4511 5.73028C22.5447 5.0681 22.5375 4.39853 22.3538 3.78814C21.4209 0.669613 16.5293 -0.214525 13.8637 0.0407285C9.73937 0.440255 6.32822 2.94469 4.94863 7.05464C4.83696 7.37278 4.75772 7.70202 4.68928 8.02756C4.67847 8.08675 4.66767 8.14594 4.65686 8.20883C6.45789 8.03866 14.5661 7.53555 18.7265 13.0438C18.7481 13.0179 18.7697 12.992 18.7914 12.9661C19.6451 11.8822 20.4699 10.802 21.0931 9.57757Z" fill="#1982D8"/>
<path d="M25.0085 5.76366C24.3818 4.64646 23.6037 3.67354 22.7176 2.85229C22.8437 3.08535 22.9481 3.32951 23.0202 3.58106C23.2399 4.32832 23.2327 5.10148 23.1282 5.83395C23.0202 6.56641 22.8113 7.26928 22.5591 7.94256C22.3034 8.61583 22.0116 9.26691 21.673 9.8995C21.003 11.1647 20.1709 12.33 19.2164 13.3695C18.2799 14.3905 17.1524 15.3782 16.0033 16.1255C12.3905 18.9258 8.48224 20.2391 7.59973 20.5128C8.08241 21.0677 8.61912 21.5745 9.21346 22.0037C9.75737 22.3995 10.3445 22.7324 10.9605 22.9877C11.58 23.2392 12.2284 23.4131 12.8876 23.5019C13.5431 23.587 14.2275 23.6018 14.9047 23.5944C15.5819 23.5833 16.2591 23.5426 16.9327 23.4501C18.1718 23.2836 19.4073 22.9729 20.5311 22.3662C20.5924 22.3329 20.65 22.2996 20.7112 22.2626C26.3341 18.9295 28.2612 11.5457 25.0121 5.77106L25.0085 5.76366Z" fill="#0F67B7"/>
<path d="M8.89659 22.455C8.19419 21.9593 7.56383 21.36 7.00911 20.7053C6.6417 20.2724 6.30311 19.81 5.99693 19.3328C5.23329 18.1194 4.66417 16.784 4.29676 15.393C4.11665 14.6976 3.99058 13.9799 3.90774 13.2696C3.82489 12.5557 3.77806 11.8417 3.77086 11.124C3.76365 10.4064 3.79607 9.68869 3.86811 8.97102C3.86811 8.94143 3.87532 8.90813 3.87892 8.87854C3.91494 8.553 3.95096 8.23116 4.01219 7.89452C4.08063 7.53199 4.17069 7.17315 4.28595 6.82542C4.37961 6.53687 4.48767 6.25572 4.60654 5.97827C3.98338 7.10656 3.20533 8.43832 2.67583 9.0783C2.03106 9.85886 1.11974 11.2683 0.701898 12.8923C0.701898 12.9034 0.694694 12.9182 0.691092 12.9293C0.568621 13.4213 0.503784 13.9392 0.503784 14.4719C0.503784 15.0712 0.586632 15.6483 0.74152 16.1958C0.943236 16.9209 1.27463 17.6052 1.71048 18.2082C2.24358 18.9407 2.95679 19.6029 3.66279 20.1578C4.84427 21.0826 6.38235 21.4414 7.73313 22.0259" fill="#30A4E5"/>
<path d="M37.0646 23.9531H36.3046L36.002 23.1429H34.6152L34.3306 23.9531H33.5886L34.9394 20.3906H35.6814L37.0682 23.9531H37.0646ZM35.7751 22.5436L35.296 21.223L34.8277 22.5436H35.7751Z" fill="black"/>
<path d="M38.5991 20.3906H39.8778C40.166 20.3906 40.3857 20.4128 40.537 20.4572C40.7387 20.5201 40.9152 20.6274 41.0593 20.7865C41.2034 20.9418 41.315 21.1342 41.3907 21.3635C41.4663 21.5892 41.5059 21.8704 41.5059 22.207C41.5059 22.4992 41.4699 22.7508 41.3979 22.9654C41.3114 23.2243 41.1889 23.4352 41.0269 23.5942C40.9044 23.7163 40.7423 23.8088 40.5334 23.8791C40.3785 23.9309 40.1732 23.9531 39.9138 23.9531H38.5955V20.3906H38.5991ZM39.2979 20.9936V23.3538H39.8202C40.0147 23.3538 40.1552 23.3427 40.2452 23.3205C40.3569 23.2909 40.4541 23.2428 40.5262 23.1725C40.6018 23.1022 40.663 22.9875 40.7099 22.8285C40.7567 22.6694 40.7819 22.4511 40.7819 22.1774C40.7819 21.9036 40.7567 21.6928 40.7099 21.5448C40.663 21.3968 40.5982 21.2822 40.5118 21.2008C40.4253 21.1194 40.3172 21.0639 40.1876 21.0343C40.0903 21.0121 39.8994 21.001 39.6148 21.001H39.3015L39.2979 20.9936Z" fill="black"/>
<path d="M43.5484 23.132L44.2111 23.2467C44.1247 23.4946 43.9914 23.6869 43.8077 23.8164C43.624 23.9459 43.3935 24.0125 43.1197 24.0125C42.6839 24.0125 42.3597 23.8645 42.1508 23.5723C41.9851 23.3392 41.9022 23.0396 41.9022 22.6844C41.9022 22.2553 42.0103 21.9224 42.23 21.6782C42.4461 21.4378 42.7235 21.3157 43.0549 21.3157C43.4295 21.3157 43.7249 21.4415 43.941 21.6967C44.1571 21.952 44.2616 22.3367 44.2508 22.862H42.5866C42.5902 23.0655 42.6442 23.2208 42.7487 23.3355C42.8532 23.4502 42.9792 23.5057 43.1305 23.5057C43.235 23.5057 43.3214 23.4761 43.3935 23.4169C43.4655 23.3577 43.5195 23.2652 43.5556 23.1357L43.5484 23.132ZM43.588 22.444C43.5844 22.2479 43.534 22.0962 43.4403 21.9927C43.3466 21.8891 43.2314 21.8373 43.0945 21.8373C42.9504 21.8373 42.828 21.8928 42.7343 22C42.6406 22.1073 42.5938 22.2553 42.5938 22.4403H43.588V22.444Z" fill="black"/>
<path d="M44.7875 23.9531V20.3906H45.4539V23.9531H44.7875Z" fill="black"/>
<path d="M47.2873 21.3747V21.9185H46.8335V22.958C46.8335 23.1689 46.8371 23.291 46.8479 23.3242C46.8587 23.3575 46.8767 23.3871 46.9055 23.4093C46.9379 23.4315 46.9739 23.4426 47.0172 23.4426C47.0784 23.4426 47.1685 23.4204 47.2837 23.376L47.3413 23.905C47.1865 23.9716 47.0136 24.0086 46.8155 24.0086C46.6966 24.0086 46.5885 23.9864 46.4913 23.9457C46.394 23.905 46.3256 23.8496 46.2787 23.7867C46.2355 23.7201 46.2031 23.6313 46.1851 23.5203C46.1707 23.4426 46.1635 23.2799 46.1635 23.0394V21.9148H45.8573V21.371H46.1635V20.8568L46.8299 20.4573V21.3673H47.2837L47.2873 21.3747Z" fill="black"/>
<path d="M48.2454 22.1589L47.6438 22.0479C47.7123 21.8001 47.8275 21.6151 47.9932 21.493C48.1589 21.371 48.4039 21.3118 48.7316 21.3118C49.027 21.3118 49.2503 21.3488 49.3944 21.419C49.5385 21.4893 49.643 21.5818 49.7006 21.6928C49.7582 21.8038 49.7906 22.0072 49.7906 22.3032L49.7834 23.0985C49.7834 23.3242 49.7943 23.4907 49.8159 23.6016C49.8375 23.7126 49.8771 23.8236 49.9347 23.9494H49.2792C49.2611 23.905 49.2395 23.8384 49.2143 23.7496C49.2035 23.7089 49.1963 23.683 49.1927 23.6682C49.0774 23.7829 48.9586 23.868 48.8289 23.9235C48.6992 23.979 48.5623 24.0086 48.4147 24.0086C48.1553 24.0086 47.9536 23.9383 47.8023 23.794C47.651 23.6497 47.579 23.4685 47.579 23.2465C47.579 23.1022 47.6114 22.9728 47.6798 22.8581C47.7483 22.7434 47.8419 22.6583 47.9644 22.5954C48.0869 22.5362 48.2634 22.4808 48.4939 22.4364C48.8037 22.3772 49.0198 22.3217 49.1387 22.2699V22.2033C49.1387 22.0738 49.1063 21.9776 49.045 21.9222C48.9838 21.8667 48.8649 21.8371 48.6884 21.8371C48.5695 21.8371 48.4795 21.8593 48.4111 21.9074C48.3462 21.9554 48.2922 22.0405 48.249 22.1589H48.2454ZM49.1351 22.7138C49.0486 22.7434 48.9153 22.7767 48.7316 22.8174C48.5479 22.8581 48.4255 22.8988 48.3714 22.9358C48.285 22.9987 48.2418 23.08 48.2418 23.1762C48.2418 23.2724 48.2778 23.3538 48.3462 23.4241C48.4147 23.4944 48.5047 23.5277 48.6128 23.5277C48.7316 23.5277 48.8469 23.487 48.955 23.4056C49.0342 23.3427 49.0882 23.2687 49.1135 23.1799C49.1315 23.1207 49.1387 23.0098 49.1387 22.847V22.7101L49.1351 22.7138Z" fill="black"/>
<path d="M54.7399 23.9531H53.9799L53.6773 23.1429H52.2905L52.0059 23.9531H51.2639L52.6147 20.3906H53.3567L54.7435 23.9531H54.7399ZM53.4504 22.5436L52.9713 21.223L52.503 22.5436H53.4504Z" fill="black"/>
<path d="M54.8732 23.2171L55.5396 23.1135C55.5684 23.2467 55.626 23.3466 55.7125 23.4168C55.7989 23.4871 55.9214 23.5204 56.0763 23.5204C56.2492 23.5204 56.3788 23.4871 56.4653 23.4242C56.5229 23.3799 56.5517 23.317 56.5517 23.243C56.5517 23.1912 56.5373 23.1468 56.5049 23.1135C56.4725 23.0802 56.3968 23.0506 56.2816 23.0247C55.7449 22.9026 55.4063 22.7917 55.2622 22.6918C55.0641 22.5512 54.9632 22.3588 54.9632 22.111C54.9632 21.889 55.0497 21.7004 55.2226 21.5487C55.3955 21.397 55.662 21.3193 56.0222 21.3193C56.3824 21.3193 56.6202 21.3748 56.7895 21.4932C56.9588 21.6116 57.0704 21.7781 57.1353 22.0037L56.5085 22.1221C56.4833 22.0222 56.4329 21.9445 56.3572 21.8927C56.2816 21.8409 56.1771 21.8113 56.0366 21.8113C55.8601 21.8113 55.7377 21.8372 55.662 21.8853C55.6116 21.9223 55.5864 21.9667 55.5864 22.0222C55.5864 22.0703 55.608 22.111 55.6512 22.1443C55.7125 22.1887 55.9178 22.2553 56.2708 22.3366C56.6238 22.418 56.8723 22.5216 57.0128 22.64C57.1533 22.7621 57.2217 22.9322 57.2217 23.1468C57.2217 23.3836 57.1245 23.587 56.9336 23.7572C56.7426 23.9274 56.4581 24.0124 56.0799 24.0124C55.7377 24.0124 55.4675 23.9422 55.2658 23.7979C55.0677 23.6536 54.9344 23.4612 54.8732 23.2171Z" fill="black"/>
<path d="M57.5675 23.2171L58.2339 23.1135C58.2627 23.2467 58.3203 23.3466 58.4068 23.4168C58.4932 23.4871 58.6157 23.5204 58.7706 23.5204C58.9435 23.5204 59.0732 23.4871 59.1596 23.4242C59.2173 23.3799 59.2461 23.317 59.2461 23.243C59.2461 23.1912 59.2317 23.1468 59.1992 23.1135C59.1668 23.0802 59.0912 23.0506 58.9759 23.0247C58.4392 22.9026 58.1006 22.7917 57.9565 22.6918C57.7584 22.5512 57.6576 22.3588 57.6576 22.111C57.6576 21.889 57.744 21.7004 57.9169 21.5487C58.0898 21.397 58.3564 21.3193 58.7166 21.3193C59.0768 21.3193 59.3145 21.3748 59.4838 21.4932C59.6531 21.6116 59.7648 21.7781 59.8296 22.0037L59.2028 22.1221C59.1776 22.0222 59.1272 21.9445 59.0516 21.8927C58.9759 21.8409 58.8715 21.8113 58.731 21.8113C58.5545 21.8113 58.432 21.8372 58.3564 21.8853C58.3059 21.9223 58.2807 21.9667 58.2807 22.0222C58.2807 22.0703 58.3023 22.111 58.3456 22.1443C58.4068 22.1887 58.6121 22.2553 58.9651 22.3366C59.3181 22.418 59.5667 22.5216 59.7071 22.64C59.8476 22.7621 59.9161 22.9322 59.9161 23.1468C59.9161 23.3836 59.8188 23.587 59.6279 23.7572C59.437 23.9274 59.1524 24.0124 58.7742 24.0124C58.432 24.0124 58.1618 23.9422 57.9601 23.7979C57.762 23.6536 57.6287 23.4612 57.5675 23.2171Z" fill="black"/>
<path d="M60.3411 22.6252C60.3411 22.3996 60.3952 22.1776 60.5032 21.9668C60.6113 21.7559 60.7662 21.5931 60.9643 21.4821C61.1624 21.3712 61.3857 21.3157 61.6307 21.3157C62.0089 21.3157 62.3223 21.4415 62.5636 21.6967C62.8049 21.952 62.9274 22.2701 62.9274 22.6585C62.9274 23.047 62.8049 23.3725 62.56 23.6277C62.3151 23.883 62.0053 24.0125 61.6343 24.0125C61.4037 24.0125 61.184 23.9607 60.9751 23.8534C60.7662 23.7461 60.6077 23.5908 60.4996 23.3836C60.3916 23.1764 60.3375 22.9249 60.3375 22.6289L60.3411 22.6252ZM61.0219 22.6622C61.0219 22.9175 61.0795 23.1135 61.1984 23.2504C61.3173 23.3873 61.4614 23.4539 61.6343 23.4539C61.8072 23.4539 61.9512 23.3873 62.0701 23.2504C62.189 23.1135 62.2466 22.9175 62.2466 22.6585C62.2466 22.3996 62.189 22.2109 62.0701 22.074C61.9512 21.9372 61.8072 21.8706 61.6343 21.8706C61.4614 21.8706 61.3137 21.9372 61.1984 22.074C61.0795 22.2109 61.0219 22.407 61.0219 22.6622Z" fill="black"/>
<path d="M65.6469 22.1367L64.9914 22.2588C64.9698 22.1256 64.9193 22.022 64.8401 21.9554C64.7608 21.8889 64.66 21.8519 64.5375 21.8519C64.3718 21.8519 64.2385 21.9111 64.1413 22.0294C64.044 22.1478 63.9936 22.3439 63.9936 22.6176C63.9936 22.9247 64.044 23.1392 64.1449 23.265C64.2457 23.3908 64.379 23.4537 64.5483 23.4537C64.6744 23.4537 64.7788 23.4167 64.8581 23.3427C64.9373 23.2687 64.995 23.1429 65.0274 22.9617L65.6794 23.0763C65.6109 23.3834 65.4812 23.6164 65.2903 23.7718C65.0994 23.9272 64.8401 24.0086 64.5159 24.0086C64.1485 24.0086 63.8567 23.8902 63.637 23.6497C63.4173 23.413 63.3092 23.0837 63.3092 22.662C63.3092 22.2403 63.4173 21.9037 63.637 21.6669C63.8567 21.4301 64.1521 21.3118 64.5267 21.3118C64.8329 21.3118 65.0742 21.3784 65.2579 21.5152C65.438 21.6521 65.5677 21.8556 65.6469 22.133V22.1367Z" fill="black"/>
<path d="M66.1477 21.0232V20.3906H66.8141V21.0232H66.1477ZM66.1477 23.9531V21.3746H66.8141V23.9531H66.1477Z" fill="black"/>
<path d="M67.9919 22.1589L67.3904 22.0479C67.4588 21.8001 67.5741 21.6151 67.7398 21.493C67.9055 21.371 68.1504 21.3118 68.4782 21.3118C68.7736 21.3118 68.9969 21.3488 69.141 21.419C69.2851 21.4893 69.3895 21.5818 69.4472 21.6928C69.5048 21.8038 69.5372 22.0072 69.5372 22.3032L69.53 23.0985C69.53 23.3242 69.5408 23.4907 69.5624 23.6016C69.5841 23.7126 69.6237 23.8236 69.6813 23.9494H69.0257C69.0077 23.905 68.9861 23.8384 68.9609 23.7496C68.9501 23.7089 68.9429 23.683 68.9393 23.6682C68.824 23.7829 68.7052 23.868 68.5755 23.9235C68.4458 23.979 68.3089 24.0086 68.1612 24.0086C67.9019 24.0086 67.7002 23.9383 67.5489 23.794C67.3976 23.6497 67.3256 23.4685 67.3256 23.2465C67.3256 23.1022 67.358 22.9728 67.4264 22.8581C67.4949 22.7434 67.5885 22.6583 67.711 22.5954C67.8334 22.5362 68.01 22.4808 68.2405 22.4364C68.5503 22.3772 68.7664 22.3217 68.8853 22.2699V22.2033C68.8853 22.0738 68.8528 21.9776 68.7916 21.9222C68.7304 21.8667 68.6115 21.8371 68.435 21.8371C68.3161 21.8371 68.2261 21.8593 68.1576 21.9074C68.0928 21.9554 68.0388 22.0405 67.9955 22.1589H67.9919ZM68.8817 22.7138C68.7952 22.7434 68.6619 22.7767 68.4782 22.8174C68.2945 22.8581 68.172 22.8988 68.118 22.9358C68.0316 22.9987 67.9883 23.08 67.9883 23.1762C67.9883 23.2724 68.0244 23.3538 68.0928 23.4241C68.1612 23.4944 68.2513 23.5277 68.3594 23.5277C68.4782 23.5277 68.5935 23.487 68.7015 23.4056C68.7808 23.3427 68.8348 23.2687 68.86 23.1799C68.878 23.1207 68.8853 23.0098 68.8853 22.847V22.7101L68.8817 22.7138Z" fill="black"/>
<path d="M71.3419 21.3747V21.9185H70.888V22.958C70.888 23.1689 70.8916 23.291 70.9024 23.3242C70.9132 23.3575 70.9313 23.3871 70.9601 23.4093C70.9925 23.4315 71.0285 23.4426 71.0717 23.4426C71.133 23.4426 71.223 23.4204 71.3383 23.376L71.3959 23.905C71.241 23.9716 71.0681 24.0086 70.87 24.0086C70.7511 24.0086 70.6431 23.9864 70.5458 23.9457C70.4486 23.905 70.3801 23.8496 70.3333 23.7867C70.2901 23.7201 70.2577 23.6313 70.2397 23.5203C70.2252 23.4426 70.218 23.2799 70.218 23.0394V21.9148H69.9119V21.371H70.218V20.8568L70.8844 20.4573V21.3673H71.3383L71.3419 21.3747Z" fill="black"/>
<path d="M73.2582 23.132L73.921 23.2467C73.8345 23.4946 73.7013 23.6869 73.5176 23.8164C73.3339 23.9459 73.1033 24.0125 72.8296 24.0125C72.3937 24.0125 72.0695 23.8645 71.8606 23.5723C71.6949 23.3392 71.6121 23.0396 71.6121 22.6844C71.6121 22.2553 71.7201 21.9224 71.9398 21.6782C72.156 21.4378 72.4333 21.3157 72.7647 21.3157C73.1393 21.3157 73.4347 21.4415 73.6508 21.6967C73.867 21.952 73.9714 22.3367 73.9606 22.862H72.2965C72.3001 23.0655 72.3541 23.2208 72.4585 23.3355C72.563 23.4502 72.6891 23.5057 72.8404 23.5057C72.9448 23.5057 73.0313 23.4761 73.1033 23.4169C73.1754 23.3577 73.2294 23.2652 73.2654 23.1357L73.2582 23.132ZM73.2942 22.444C73.2906 22.2479 73.2402 22.0962 73.1465 21.9927C73.0529 21.8891 72.9376 21.8373 72.8007 21.8373C72.6567 21.8373 72.5342 21.8928 72.4405 22C72.3469 22.1073 72.3001 22.2553 72.3001 22.4403H73.2942V22.444Z" fill="black"/>
<path d="M78.0669 22.6436L78.7441 22.8656C78.6397 23.254 78.4668 23.5426 78.2254 23.7312C77.9841 23.9199 77.6779 24.0124 77.3033 24.0124C76.8422 24.0124 76.464 23.8496 76.1686 23.5278C75.8733 23.2059 75.7256 22.762 75.7256 22.2034C75.7256 21.6115 75.8733 21.1491 76.1722 20.8236C76.4712 20.4943 76.8638 20.3315 77.3465 20.3315C77.7716 20.3315 78.1138 20.461 78.3803 20.7163C78.5388 20.8679 78.6577 21.0862 78.7333 21.3711L78.0417 21.5412C78.0021 21.3563 77.9156 21.212 77.786 21.1047C77.6563 20.9974 77.4978 20.9456 77.3105 20.9456C77.0548 20.9456 76.8458 21.0418 76.6837 21.2305C76.5252 21.4191 76.4424 21.7262 76.4424 22.1516C76.4424 22.6029 76.5216 22.9211 76.6801 23.1134C76.8386 23.3058 77.0439 23.3983 77.2961 23.3983C77.4834 23.3983 77.6419 23.3391 77.7752 23.217C77.9084 23.0949 78.0057 22.9063 78.0633 22.6436H78.0669Z" fill="black"/>
<path d="M79.1872 22.6252C79.1872 22.3996 79.2412 22.1776 79.3493 21.9668C79.4573 21.7559 79.6122 21.5931 79.8103 21.4821C80.0085 21.3712 80.2318 21.3157 80.4767 21.3157C80.855 21.3157 81.1683 21.4415 81.4097 21.6967C81.651 21.952 81.7735 22.2701 81.7735 22.6585C81.7735 23.047 81.651 23.3725 81.4061 23.6277C81.1611 23.883 80.8513 24.0125 80.4803 24.0125C80.2498 24.0125 80.0301 23.9607 79.8212 23.8534C79.6122 23.7461 79.4537 23.5908 79.3457 23.3836C79.2376 23.1764 79.1836 22.9249 79.1836 22.6289L79.1872 22.6252ZM79.868 22.6622C79.868 22.9175 79.9256 23.1135 80.0445 23.2504C80.1634 23.3873 80.3074 23.4539 80.4803 23.4539C80.6532 23.4539 80.7973 23.3873 80.9162 23.2504C81.0351 23.1135 81.0927 22.9175 81.0927 22.6585C81.0927 22.3996 81.0351 22.2109 80.9162 22.074C80.7973 21.9372 80.6532 21.8706 80.4803 21.8706C80.3074 21.8706 80.1598 21.9372 80.0445 22.074C79.9256 22.2109 79.868 22.407 79.868 22.6622Z" fill="black"/>
<path d="M82.2526 21.3749H82.8649V21.7263C83.0846 21.4525 83.344 21.3157 83.6466 21.3157C83.8087 21.3157 83.9455 21.349 84.0644 21.4156C84.1833 21.4821 84.2805 21.5857 84.3562 21.7226C84.4678 21.5857 84.5867 21.4821 84.7128 21.4156C84.8388 21.349 84.9757 21.3157 85.1234 21.3157C85.3071 21.3157 85.462 21.3527 85.5917 21.4304C85.7177 21.508 85.815 21.619 85.8762 21.7707C85.9231 21.8817 85.9447 22.0592 85.9447 22.3034V23.9533H85.2819V22.4773C85.2819 22.222 85.2603 22.0555 85.2135 21.9816C85.1522 21.8854 85.0586 21.8373 84.9289 21.8373C84.8352 21.8373 84.7488 21.8669 84.6659 21.9261C84.5831 21.9853 84.5255 22.0703 84.4894 22.1813C84.4534 22.2923 84.4354 22.4699 84.4354 22.714V23.9533H83.7726V22.5401C83.7726 22.2886 83.7618 22.1258 83.7366 22.0555C83.715 21.9816 83.6754 21.9298 83.6285 21.8928C83.5817 21.8558 83.5133 21.841 83.4268 21.841C83.326 21.841 83.2323 21.8706 83.1495 21.9261C83.0666 21.9816 83.009 22.0629 82.973 22.1702C82.937 22.2775 82.9189 22.4551 82.9189 22.7029V23.957H82.2562V21.3786L82.2526 21.3749Z" fill="black"/>
<path d="M86.5894 21.3749H87.2089V21.7522C87.2882 21.6227 87.3962 21.5191 87.5367 21.4378C87.6772 21.3564 87.8249 21.3157 87.9942 21.3157C88.2859 21.3157 88.5345 21.4341 88.7362 21.6671C88.9379 21.9002 89.0424 22.2294 89.0424 22.6474C89.0424 23.0655 88.9415 23.4132 88.7362 23.6536C88.5309 23.8941 88.2823 24.0125 87.9906 24.0125C87.8537 24.0125 87.7276 23.9829 87.6123 23.9274C87.4971 23.8719 87.3818 23.772 87.2557 23.6351V24.9336H86.593V21.3712L86.5894 21.3749ZM87.2485 22.6178C87.2485 22.9064 87.3026 23.1209 87.4178 23.2615C87.5295 23.3984 87.6664 23.4687 87.8285 23.4687C87.9906 23.4687 88.113 23.4058 88.2139 23.2763C88.3147 23.1505 88.3688 22.9397 88.3688 22.6511C88.3688 22.3811 88.3147 22.1813 88.2103 22.0481C88.1058 21.9187 87.9725 21.8521 87.8177 21.8521C87.6628 21.8521 87.5223 21.915 87.4142 22.0444C87.3062 22.1739 87.2521 22.3626 87.2521 22.6178H87.2485Z" fill="black"/>
<path d="M90.0654 22.1589L89.4639 22.0479C89.5323 21.8001 89.6476 21.6151 89.8133 21.493C89.979 21.371 90.2239 21.3118 90.5517 21.3118C90.8471 21.3118 91.0704 21.3488 91.2145 21.419C91.3586 21.4893 91.463 21.5818 91.5207 21.6928C91.5783 21.8038 91.6107 22.0072 91.6107 22.3032L91.6035 23.0985C91.6035 23.3242 91.6143 23.4907 91.6359 23.6016C91.6575 23.7126 91.6972 23.8236 91.7548 23.9494H91.0992C91.0812 23.905 91.0596 23.8384 91.0344 23.7496C91.0236 23.7089 91.0164 23.683 91.0128 23.6682C90.8975 23.7829 90.7786 23.868 90.649 23.9235C90.5193 23.979 90.3824 24.0086 90.2347 24.0086C89.9754 24.0086 89.7737 23.9383 89.6224 23.794C89.4711 23.6497 89.399 23.4685 89.399 23.2465C89.399 23.1022 89.4315 22.9728 89.4999 22.8581C89.5683 22.7434 89.662 22.6583 89.7845 22.5954C89.9069 22.5362 90.0834 22.4808 90.314 22.4364C90.6237 22.3772 90.8399 22.3217 90.9587 22.2699V22.2033C90.9587 22.0738 90.9263 21.9776 90.8651 21.9222C90.8039 21.8667 90.685 21.8371 90.5085 21.8371C90.3896 21.8371 90.2996 21.8593 90.2311 21.9074C90.1663 21.9554 90.1123 22.0405 90.069 22.1589H90.0654ZM90.9551 22.7138C90.8687 22.7434 90.7354 22.7767 90.5517 22.8174C90.368 22.8581 90.2455 22.8988 90.1915 22.9358C90.1051 22.9987 90.0618 23.08 90.0618 23.1762C90.0618 23.2724 90.0978 23.3538 90.1663 23.4241C90.2347 23.4944 90.3248 23.5277 90.4328 23.5277C90.5517 23.5277 90.667 23.487 90.775 23.4056C90.8543 23.3427 90.9083 23.2687 90.9335 23.1799C90.9515 23.1207 90.9587 23.0098 90.9587 22.847V22.7101L90.9551 22.7138Z" fill="black"/>
<path d="M94.5464 23.9533H93.88V22.6363C93.88 22.3589 93.8656 22.1776 93.8368 22.0962C93.808 22.0148 93.7612 21.952 93.6999 21.9039C93.6351 21.8595 93.5594 21.8373 93.4694 21.8373C93.3541 21.8373 93.2497 21.8706 93.1596 21.9335C93.0696 21.9963 93.0047 22.0851 92.9723 22.1924C92.9399 22.2997 92.9219 22.4958 92.9219 22.7843V23.9533H92.2555V21.3749H92.8714V21.7522C93.0912 21.4599 93.3649 21.3157 93.6999 21.3157C93.8476 21.3157 93.9809 21.3416 94.1033 21.3971C94.2258 21.4525 94.3159 21.5191 94.3771 21.6042C94.4383 21.6893 94.4816 21.7855 94.5068 21.8891C94.532 21.9926 94.5428 22.148 94.5428 22.3478V23.9496L94.5464 23.9533Z" fill="black"/>
<path d="M94.9066 21.3748H95.6126L96.2142 23.2059L96.8013 21.3748H97.4893L96.6032 23.857L96.4447 24.3046C96.3871 24.4563 96.3294 24.571 96.279 24.6487C96.225 24.7263 96.1673 24.7929 96.0953 24.841C96.0269 24.8891 95.944 24.9298 95.8432 24.9557C95.7423 24.9816 95.6306 24.9964 95.5046 24.9964C95.3785 24.9964 95.2524 24.9816 95.1299 24.9557L95.0723 24.423C95.1768 24.4452 95.2704 24.4563 95.3533 24.4563C95.5082 24.4563 95.6234 24.4082 95.6955 24.3157C95.7711 24.2232 95.8251 24.1049 95.8648 23.9606L94.9102 21.3748H94.9066Z" fill="black"/>
</g>
<defs>
<clipPath id="clip0_115_9571">
<rect width="97" height="25" fill="white" transform="translate(0.5)"/>
</clipPath>
</defs>
</svg>
